<?xml version="1.0" encoding="utf-8"?>
<!-- Generator: Adobe Illustrator 16.0.0, SVG Export Plug-In . SVG Version: 6.00 Build 0)  -->
<!DOCTYPE svg PUBLIC "-//W3C//DTD SVG 1.1//EN" "http://www.w3.org/Graphics/SVG/1.1/DTD/svg11.dtd">
<svg version="1.1" id="Calque_1" xmlns="http://www.w3.org/2000/svg" xmlns:xlink="http://www.w3.org/1999/xlink" x="0px" y="0px"
	 width="43.559px" height="56.798px" viewBox="0 0 43.559 56.798" enable-background="new 0 0 43.559 56.798" xml:space="preserve">
<g>
	<path fill="none" stroke="#FFFFFF" stroke-miterlimit="10" d="M10.542,49.005c0,0,6.244-4.15,8.828-7.567
		c5.583-8.583,0.917-12.584,0.917-12.584c-9.75-8.083,2.583-15.75,2.583-15.75l10.667-6c2.666-10.5-11.167-5.333-11.167-5.333
		C0.953,10.688,9.453,27.104,9.453,27.104l-8.417,10.75c3.954-0.05,7.307,5.973,9.355,10.791c1.361,3.205,2.146,5.877,2.146,5.877"
		/>
	<path fill="none" stroke="#FFFFFF" stroke-miterlimit="10" d="M33.537,7.104"/>
	<path fill="none" stroke="#FFFFFF" stroke-miterlimit="10" d="M26.287,6.521c0,0,10.583-2.083,16.5,13.333
		c0,0,1.166,2.25-1.334,2.5h-0.834l0.084,1.917c0,0,2.417,1.5-1.166,1.75l-0.168,1.489c0,0,3.584-0.739,2.334,5.011
		c0,0-1.333,2.917-13.166,0.5c0,0,9.416,0.333,10.166,21.917v0.75c0,0-12.334-10.916-18-9.833"/>
	<path fill="none" stroke="#FFFFFF" stroke-miterlimit="10" d="M4.787,54.522c0,0-1.25-5.334-2.083-5.75c0,0,15.833-13.334,13-18.5"
		/>
	<path fill="none" stroke="#FFFFFF" stroke-miterlimit="10" d="M29.545,16.947c0,0,4.07-4.837,8.666,0"/>
	<path fill="none" stroke="#FFFFFF" stroke-miterlimit="10" d="M38.086,16.53c0,0-3.952,4.837-8.416,0"/>
	<circle fill="none" stroke="#FFFFFF" stroke-miterlimit="10" cx="33.878" cy="16.531" r="1.571"/>
</g>
</svg>
